<mxfile host="app.diagrams.net" modified="2024-01-18T17:17:09.713Z" agent="Mozilla/5.0 (Macintosh; Intel Mac OS X 10_15_7) AppleWebKit/537.36 (KHTML, like Gecko) Chrome/119.0.0.0 Safari/537.36" etag="rlHPCyIjAsJzrwx-Psqd" version="22.1.21" type="device" pages="3">
  <diagram id="sfTkznqVmZBej2GeGO5h" name="USE-CASE DIAGRAM">
    <mxGraphModel dx="952" dy="1708" grid="1" gridSize="10" guides="1" tooltips="1" connect="1" arrows="1" fold="1" page="1" pageScale="1" pageWidth="827" pageHeight="1169" math="0" shadow="0">
      <root>
        <mxCell id="0" />
        <mxCell id="1" parent="0" />
        <mxCell id="KrbTPwkNPRH5I7Nd2lvv-1" value="Actor" style="shape=umlActor;verticalLabelPosition=bottom;verticalAlign=top;html=1;" parent="1" vertex="1">
          <mxGeometry x="80" y="330" width="30" height="60" as="geometry" />
        </mxCell>
        <mxCell id="k_7gEY7fUhxdlRNGPil7-1" value="LOG-IN" style="ellipse;whiteSpace=wrap;html=1;" parent="1" vertex="1">
          <mxGeometry x="290" y="10" width="130" height="70" as="geometry" />
        </mxCell>
        <mxCell id="k_7gEY7fUhxdlRNGPil7-2" value="CRIAR PLAYLIST" style="ellipse;whiteSpace=wrap;html=1;fillColor=#FFF2CC;" parent="1" vertex="1">
          <mxGeometry x="520" y="90" width="170" height="90" as="geometry" />
        </mxCell>
        <mxCell id="k_7gEY7fUhxdlRNGPil7-3" value="PESQUISAR MÚSICA" style="ellipse;whiteSpace=wrap;html=1;" parent="1" vertex="1">
          <mxGeometry x="590" y="280" width="170" height="90" as="geometry" />
        </mxCell>
        <mxCell id="k_7gEY7fUhxdlRNGPil7-4" value="ADICIONAR MÚSICA À PLAYLIST" style="ellipse;whiteSpace=wrap;html=1;" parent="1" vertex="1">
          <mxGeometry x="810" y="90" width="180" height="90" as="geometry" />
        </mxCell>
        <mxCell id="k_7gEY7fUhxdlRNGPil7-6" value="" style="endArrow=none;html=1;rounded=0;entryX=0;entryY=1;entryDx=0;entryDy=0;" parent="1" target="k_7gEY7fUhxdlRNGPil7-1" edge="1">
          <mxGeometry width="50" height="50" relative="1" as="geometry">
            <mxPoint x="140" y="320" as="sourcePoint" />
            <mxPoint x="310" y="150" as="targetPoint" />
          </mxGeometry>
        </mxCell>
        <mxCell id="k_7gEY7fUhxdlRNGPil7-8" value="" style="endArrow=none;html=1;rounded=0;" parent="1" target="k_7gEY7fUhxdlRNGPil7-2" edge="1">
          <mxGeometry width="50" height="50" relative="1" as="geometry">
            <mxPoint x="160" y="330" as="sourcePoint" />
            <mxPoint x="390" y="230" as="targetPoint" />
          </mxGeometry>
        </mxCell>
        <mxCell id="k_7gEY7fUhxdlRNGPil7-10" value="" style="endArrow=none;html=1;rounded=0;entryX=0;entryY=0.5;entryDx=0;entryDy=0;" parent="1" target="k_7gEY7fUhxdlRNGPil7-3" edge="1">
          <mxGeometry width="50" height="50" relative="1" as="geometry">
            <mxPoint x="160" y="360" as="sourcePoint" />
            <mxPoint x="400" y="260" as="targetPoint" />
          </mxGeometry>
        </mxCell>
        <mxCell id="k_7gEY7fUhxdlRNGPil7-13" value="DAR UM NOME À PLAYLIST" style="ellipse;whiteSpace=wrap;html=1;" parent="1" vertex="1">
          <mxGeometry x="520" y="-110" width="190" height="90" as="geometry" />
        </mxCell>
        <mxCell id="k_7gEY7fUhxdlRNGPil7-14" value="REGISTO" style="ellipse;whiteSpace=wrap;html=1;" parent="1" vertex="1">
          <mxGeometry x="100" y="-80" width="130" height="70" as="geometry" />
        </mxCell>
        <mxCell id="k_7gEY7fUhxdlRNGPil7-15" value="includes" style="endArrow=open;endSize=12;dashed=1;html=1;rounded=0;exitX=0;exitY=0.386;exitDx=0;exitDy=0;exitPerimeter=0;" parent="1" source="k_7gEY7fUhxdlRNGPil7-1" target="k_7gEY7fUhxdlRNGPil7-14" edge="1">
          <mxGeometry width="160" relative="1" as="geometry">
            <mxPoint x="440" y="400" as="sourcePoint" />
            <mxPoint x="600" y="400" as="targetPoint" />
          </mxGeometry>
        </mxCell>
        <mxCell id="k_7gEY7fUhxdlRNGPil7-20" value="extends" style="endArrow=open;endSize=12;dashed=1;html=1;rounded=0;" parent="1" source="k_7gEY7fUhxdlRNGPil7-13" target="k_7gEY7fUhxdlRNGPil7-2" edge="1">
          <mxGeometry x="0.0883" y="4" width="160" relative="1" as="geometry">
            <mxPoint x="770" y="130" as="sourcePoint" />
            <mxPoint x="574" y="-10" as="targetPoint" />
            <mxPoint as="offset" />
          </mxGeometry>
        </mxCell>
        <mxCell id="k_7gEY7fUhxdlRNGPil7-21" value="POR GÉNERO" style="ellipse;whiteSpace=wrap;html=1;" parent="1" vertex="1">
          <mxGeometry x="670" y="495" width="170" height="90" as="geometry" />
        </mxCell>
        <mxCell id="k_7gEY7fUhxdlRNGPil7-23" value="POR KEYWORDS&lt;br&gt;(TITULO, ALBUM, ARTISTA )" style="ellipse;whiteSpace=wrap;html=1;" parent="1" vertex="1">
          <mxGeometry x="860" y="380" width="200" height="90" as="geometry" />
        </mxCell>
        <mxCell id="k_7gEY7fUhxdlRNGPil7-28" value="includes" style="endArrow=open;endSize=12;dashed=1;html=1;rounded=0;exitX=0.006;exitY=0.389;exitDx=0;exitDy=0;exitPerimeter=0;entryX=1;entryY=0.5;entryDx=0;entryDy=0;" parent="1" source="k_7gEY7fUhxdlRNGPil7-2" target="k_7gEY7fUhxdlRNGPil7-1" edge="1">
          <mxGeometry x="0.0941" y="3" width="160" relative="1" as="geometry">
            <mxPoint x="545" y="-20" as="sourcePoint" />
            <mxPoint x="440" y="58" as="targetPoint" />
            <mxPoint as="offset" />
          </mxGeometry>
        </mxCell>
        <mxCell id="k_7gEY7fUhxdlRNGPil7-31" value="extends" style="endArrow=open;endSize=12;dashed=1;html=1;rounded=0;exitX=0;exitY=0.5;exitDx=0;exitDy=0;entryX=1;entryY=0.356;entryDx=0;entryDy=0;entryPerimeter=0;" parent="1" source="k_7gEY7fUhxdlRNGPil7-4" target="k_7gEY7fUhxdlRNGPil7-2" edge="1">
          <mxGeometry x="0.0113" y="3" width="160" relative="1" as="geometry">
            <mxPoint x="809" y="141" as="sourcePoint" />
            <mxPoint x="827" y="20" as="targetPoint" />
            <mxPoint as="offset" />
          </mxGeometry>
        </mxCell>
        <mxCell id="k_7gEY7fUhxdlRNGPil7-33" value="extends" style="endArrow=open;endSize=12;dashed=1;html=1;rounded=0;entryX=0.3;entryY=0.989;entryDx=0;entryDy=0;entryPerimeter=0;" parent="1" source="k_7gEY7fUhxdlRNGPil7-3" target="k_7gEY7fUhxdlRNGPil7-4" edge="1">
          <mxGeometry x="0.0941" y="3" width="160" relative="1" as="geometry">
            <mxPoint x="905" y="110" as="sourcePoint" />
            <mxPoint x="1000" y="100" as="targetPoint" />
            <mxPoint as="offset" />
          </mxGeometry>
        </mxCell>
        <mxCell id="k_7gEY7fUhxdlRNGPil7-38" value="" style="endArrow=block;endFill=0;endSize=12;html=1;rounded=0;exitX=0;exitY=0.322;exitDx=0;exitDy=0;exitPerimeter=0;" parent="1" source="k_7gEY7fUhxdlRNGPil7-23" target="k_7gEY7fUhxdlRNGPil7-3" edge="1">
          <mxGeometry width="160" relative="1" as="geometry">
            <mxPoint x="874" y="378.5" as="sourcePoint" />
            <mxPoint x="690" y="341.5" as="targetPoint" />
          </mxGeometry>
        </mxCell>
        <mxCell id="k_7gEY7fUhxdlRNGPil7-39" value="" style="endArrow=block;endFill=0;endSize=12;html=1;rounded=0;exitX=0.324;exitY=0.056;exitDx=0;exitDy=0;exitPerimeter=0;" parent="1" source="k_7gEY7fUhxdlRNGPil7-21" target="k_7gEY7fUhxdlRNGPil7-3" edge="1">
          <mxGeometry width="160" relative="1" as="geometry">
            <mxPoint x="730" y="490" as="sourcePoint" />
            <mxPoint x="616" y="360" as="targetPoint" />
          </mxGeometry>
        </mxCell>
        <mxCell id="1IdNOZtbINBi9OkaHP13-1" value="&lt;font style=&quot;font-size: 15px;&quot;&gt;&lt;b&gt;SPOTIFY - CRIAÇÃO DE PLAYLIST&lt;/b&gt;&lt;/font&gt;" style="text;html=1;strokeColor=none;fillColor=none;align=center;verticalAlign=middle;whiteSpace=wrap;rounded=0;" vertex="1" parent="1">
          <mxGeometry x="110" y="-250" width="310" height="30" as="geometry" />
        </mxCell>
      </root>
    </mxGraphModel>
  </diagram>
  <diagram id="rk6pAuzWvvLKBm6MHjAe" name="CLASS DIAGRAM">
    <mxGraphModel dx="952" dy="539" grid="1" gridSize="10" guides="1" tooltips="1" connect="1" arrows="1" fold="1" page="1" pageScale="1" pageWidth="827" pageHeight="1169" math="0" shadow="0">
      <root>
        <mxCell id="0" />
        <mxCell id="1" parent="0" />
        <mxCell id="q7inR5DL32FPYfNEr2lX-1" value="UTILIZADOR" style="swimlane;fontStyle=1;align=center;verticalAlign=top;childLayout=stackLayout;horizontal=1;startSize=26;horizontalStack=0;resizeParent=1;resizeParentMax=0;resizeLast=0;collapsible=1;marginBottom=0;whiteSpace=wrap;html=1;" parent="1" vertex="1">
          <mxGeometry x="80" y="120" width="180" height="134" as="geometry" />
        </mxCell>
        <mxCell id="q7inR5DL32FPYfNEr2lX-2" value="- id: int" style="text;strokeColor=none;fillColor=none;align=left;verticalAlign=top;spacingLeft=4;spacingRight=4;overflow=hidden;rotatable=0;points=[[0,0.5],[1,0.5]];portConstraint=eastwest;whiteSpace=wrap;html=1;" parent="q7inR5DL32FPYfNEr2lX-1" vertex="1">
          <mxGeometry y="26" width="180" height="26" as="geometry" />
        </mxCell>
        <mxCell id="q7inR5DL32FPYfNEr2lX-18" value="- nome: String" style="text;strokeColor=none;fillColor=none;align=left;verticalAlign=top;spacingLeft=4;spacingRight=4;overflow=hidden;rotatable=0;points=[[0,0.5],[1,0.5]];portConstraint=eastwest;whiteSpace=wrap;html=1;" parent="q7inR5DL32FPYfNEr2lX-1" vertex="1">
          <mxGeometry y="52" width="180" height="26" as="geometry" />
        </mxCell>
        <mxCell id="q7inR5DL32FPYfNEr2lX-3" value="" style="line;strokeWidth=1;fillColor=none;align=left;verticalAlign=middle;spacingTop=-1;spacingLeft=3;spacingRight=3;rotatable=0;labelPosition=right;points=[];portConstraint=eastwest;strokeColor=inherit;" parent="q7inR5DL32FPYfNEr2lX-1" vertex="1">
          <mxGeometry y="78" width="180" height="8" as="geometry" />
        </mxCell>
        <mxCell id="q7inR5DL32FPYfNEr2lX-4" value="+ Login()" style="text;strokeColor=none;fillColor=none;align=left;verticalAlign=top;spacingLeft=4;spacingRight=4;overflow=hidden;rotatable=0;points=[[0,0.5],[1,0.5]];portConstraint=eastwest;whiteSpace=wrap;html=1;" parent="q7inR5DL32FPYfNEr2lX-1" vertex="1">
          <mxGeometry y="86" width="180" height="24" as="geometry" />
        </mxCell>
        <mxCell id="q7inR5DL32FPYfNEr2lX-27" value="+ Registo()" style="text;strokeColor=none;fillColor=none;align=left;verticalAlign=top;spacingLeft=4;spacingRight=4;overflow=hidden;rotatable=0;points=[[0,0.5],[1,0.5]];portConstraint=eastwest;whiteSpace=wrap;html=1;" parent="q7inR5DL32FPYfNEr2lX-1" vertex="1">
          <mxGeometry y="110" width="180" height="24" as="geometry" />
        </mxCell>
        <mxCell id="q7inR5DL32FPYfNEr2lX-5" value="PLAYLIST" style="swimlane;fontStyle=1;align=center;verticalAlign=top;childLayout=stackLayout;horizontal=1;startSize=26;horizontalStack=0;resizeParent=1;resizeParentMax=0;resizeLast=0;collapsible=1;marginBottom=0;whiteSpace=wrap;html=1;fillColor=#FFF2CC;" parent="1" vertex="1">
          <mxGeometry x="440" y="120" width="180" height="208" as="geometry" />
        </mxCell>
        <mxCell id="q7inR5DL32FPYfNEr2lX-6" value="- nome: String" style="text;strokeColor=none;fillColor=none;align=left;verticalAlign=top;spacingLeft=4;spacingRight=4;overflow=hidden;rotatable=0;points=[[0,0.5],[1,0.5]];portConstraint=eastwest;whiteSpace=wrap;html=1;" parent="q7inR5DL32FPYfNEr2lX-5" vertex="1">
          <mxGeometry y="26" width="180" height="26" as="geometry" />
        </mxCell>
        <mxCell id="dRKOf4M9cF6QIMAqFouv-7" value="- listaMusicas: Arraylist" style="text;strokeColor=none;fillColor=none;align=left;verticalAlign=top;spacingLeft=4;spacingRight=4;overflow=hidden;rotatable=0;points=[[0,0.5],[1,0.5]];portConstraint=eastwest;whiteSpace=wrap;html=1;" parent="q7inR5DL32FPYfNEr2lX-5" vertex="1">
          <mxGeometry y="52" width="180" height="26" as="geometry" />
        </mxCell>
        <mxCell id="ty7iEHsH1KBExw1Cmslf-6" value="- listaMusicas: Arraylist" style="text;strokeColor=none;fillColor=none;align=left;verticalAlign=top;spacingLeft=4;spacingRight=4;overflow=hidden;rotatable=0;points=[[0,0.5],[1,0.5]];portConstraint=eastwest;whiteSpace=wrap;html=1;" parent="q7inR5DL32FPYfNEr2lX-5" vertex="1">
          <mxGeometry y="78" width="180" height="26" as="geometry" />
        </mxCell>
        <mxCell id="q7inR5DL32FPYfNEr2lX-7" value="" style="line;strokeWidth=1;fillColor=none;align=left;verticalAlign=middle;spacingTop=-1;spacingLeft=3;spacingRight=3;rotatable=0;labelPosition=right;points=[];portConstraint=eastwest;strokeColor=inherit;" parent="q7inR5DL32FPYfNEr2lX-5" vertex="1">
          <mxGeometry y="104" width="180" height="8" as="geometry" />
        </mxCell>
        <mxCell id="q7inR5DL32FPYfNEr2lX-8" value="+ criarPlaylist()" style="text;strokeColor=none;fillColor=none;align=left;verticalAlign=top;spacingLeft=4;spacingRight=4;overflow=hidden;rotatable=0;points=[[0,0.5],[1,0.5]];portConstraint=eastwest;whiteSpace=wrap;html=1;" parent="q7inR5DL32FPYfNEr2lX-5" vertex="1">
          <mxGeometry y="112" width="180" height="24" as="geometry" />
        </mxCell>
        <mxCell id="ty7iEHsH1KBExw1Cmslf-9" value="+ adicionarMusica()" style="text;strokeColor=none;fillColor=none;align=left;verticalAlign=top;spacingLeft=4;spacingRight=4;overflow=hidden;rotatable=0;points=[[0,0.5],[1,0.5]];portConstraint=eastwest;whiteSpace=wrap;html=1;" parent="q7inR5DL32FPYfNEr2lX-5" vertex="1">
          <mxGeometry y="136" width="180" height="24" as="geometry" />
        </mxCell>
        <mxCell id="ty7iEHsH1KBExw1Cmslf-8" value="+ apagarMusica()" style="text;strokeColor=none;fillColor=none;align=left;verticalAlign=top;spacingLeft=4;spacingRight=4;overflow=hidden;rotatable=0;points=[[0,0.5],[1,0.5]];portConstraint=eastwest;whiteSpace=wrap;html=1;" parent="q7inR5DL32FPYfNEr2lX-5" vertex="1">
          <mxGeometry y="160" width="180" height="24" as="geometry" />
        </mxCell>
        <mxCell id="ty7iEHsH1KBExw1Cmslf-7" value="+ proximaMusica()" style="text;strokeColor=none;fillColor=none;align=left;verticalAlign=top;spacingLeft=4;spacingRight=4;overflow=hidden;rotatable=0;points=[[0,0.5],[1,0.5]];portConstraint=eastwest;whiteSpace=wrap;html=1;" parent="q7inR5DL32FPYfNEr2lX-5" vertex="1">
          <mxGeometry y="184" width="180" height="24" as="geometry" />
        </mxCell>
        <mxCell id="q7inR5DL32FPYfNEr2lX-13" value="PESQUISA" style="swimlane;fontStyle=1;align=center;verticalAlign=top;childLayout=stackLayout;horizontal=1;startSize=26;horizontalStack=0;resizeParent=1;resizeParentMax=0;resizeLast=0;collapsible=1;marginBottom=0;whiteSpace=wrap;html=1;" parent="1" vertex="1">
          <mxGeometry x="765" y="532" width="180" height="60" as="geometry" />
        </mxCell>
        <mxCell id="q7inR5DL32FPYfNEr2lX-15" value="" style="line;strokeWidth=1;fillColor=none;align=left;verticalAlign=middle;spacingTop=-1;spacingLeft=3;spacingRight=3;rotatable=0;labelPosition=right;points=[];portConstraint=eastwest;strokeColor=inherit;" parent="q7inR5DL32FPYfNEr2lX-13" vertex="1">
          <mxGeometry y="26" width="180" height="8" as="geometry" />
        </mxCell>
        <mxCell id="q7inR5DL32FPYfNEr2lX-16" value="+ pesquisarMusica()" style="text;strokeColor=none;fillColor=none;align=left;verticalAlign=top;spacingLeft=4;spacingRight=4;overflow=hidden;rotatable=0;points=[[0,0.5],[1,0.5]];portConstraint=eastwest;whiteSpace=wrap;html=1;" parent="q7inR5DL32FPYfNEr2lX-13" vertex="1">
          <mxGeometry y="34" width="180" height="26" as="geometry" />
        </mxCell>
        <mxCell id="ty7iEHsH1KBExw1Cmslf-1" value="MÚSICA" style="swimlane;fontStyle=1;align=center;verticalAlign=top;childLayout=stackLayout;horizontal=1;startSize=26;horizontalStack=0;resizeParent=1;resizeParentMax=0;resizeLast=0;collapsible=1;marginBottom=0;whiteSpace=wrap;html=1;" parent="1" vertex="1">
          <mxGeometry x="780" y="120" width="180" height="242" as="geometry" />
        </mxCell>
        <mxCell id="ty7iEHsH1KBExw1Cmslf-2" value="- id: int" style="text;strokeColor=none;fillColor=none;align=left;verticalAlign=top;spacingLeft=4;spacingRight=4;overflow=hidden;rotatable=0;points=[[0,0.5],[1,0.5]];portConstraint=eastwest;whiteSpace=wrap;html=1;" parent="ty7iEHsH1KBExw1Cmslf-1" vertex="1">
          <mxGeometry y="26" width="180" height="26" as="geometry" />
        </mxCell>
        <mxCell id="ty7iEHsH1KBExw1Cmslf-11" value="- nome: String" style="text;strokeColor=none;fillColor=none;align=left;verticalAlign=top;spacingLeft=4;spacingRight=4;overflow=hidden;rotatable=0;points=[[0,0.5],[1,0.5]];portConstraint=eastwest;whiteSpace=wrap;html=1;" parent="ty7iEHsH1KBExw1Cmslf-1" vertex="1">
          <mxGeometry y="52" width="180" height="26" as="geometry" />
        </mxCell>
        <mxCell id="ty7iEHsH1KBExw1Cmslf-10" value="- artista: String" style="text;strokeColor=none;fillColor=none;align=left;verticalAlign=top;spacingLeft=4;spacingRight=4;overflow=hidden;rotatable=0;points=[[0,0.5],[1,0.5]];portConstraint=eastwest;whiteSpace=wrap;html=1;" parent="ty7iEHsH1KBExw1Cmslf-1" vertex="1">
          <mxGeometry y="78" width="180" height="26" as="geometry" />
        </mxCell>
        <mxCell id="ty7iEHsH1KBExw1Cmslf-13" value="- album: String" style="text;strokeColor=none;fillColor=none;align=left;verticalAlign=top;spacingLeft=4;spacingRight=4;overflow=hidden;rotatable=0;points=[[0,0.5],[1,0.5]];portConstraint=eastwest;whiteSpace=wrap;html=1;" parent="ty7iEHsH1KBExw1Cmslf-1" vertex="1">
          <mxGeometry y="104" width="180" height="26" as="geometry" />
        </mxCell>
        <mxCell id="ty7iEHsH1KBExw1Cmslf-12" value="- duracao: double" style="text;strokeColor=none;fillColor=none;align=left;verticalAlign=top;spacingLeft=4;spacingRight=4;overflow=hidden;rotatable=0;points=[[0,0.5],[1,0.5]];portConstraint=eastwest;whiteSpace=wrap;html=1;" parent="ty7iEHsH1KBExw1Cmslf-1" vertex="1">
          <mxGeometry y="130" width="180" height="26" as="geometry" />
        </mxCell>
        <mxCell id="ty7iEHsH1KBExw1Cmslf-3" value="" style="line;strokeWidth=1;fillColor=none;align=left;verticalAlign=middle;spacingTop=-1;spacingLeft=3;spacingRight=3;rotatable=0;labelPosition=right;points=[];portConstraint=eastwest;strokeColor=inherit;" parent="ty7iEHsH1KBExw1Cmslf-1" vertex="1">
          <mxGeometry y="156" width="180" height="8" as="geometry" />
        </mxCell>
        <mxCell id="ty7iEHsH1KBExw1Cmslf-4" value="+ play()" style="text;strokeColor=none;fillColor=none;align=left;verticalAlign=top;spacingLeft=4;spacingRight=4;overflow=hidden;rotatable=0;points=[[0,0.5],[1,0.5]];portConstraint=eastwest;whiteSpace=wrap;html=1;" parent="ty7iEHsH1KBExw1Cmslf-1" vertex="1">
          <mxGeometry y="164" width="180" height="26" as="geometry" />
        </mxCell>
        <mxCell id="ty7iEHsH1KBExw1Cmslf-19" value="+ pause()" style="text;strokeColor=none;fillColor=none;align=left;verticalAlign=top;spacingLeft=4;spacingRight=4;overflow=hidden;rotatable=0;points=[[0,0.5],[1,0.5]];portConstraint=eastwest;whiteSpace=wrap;html=1;" parent="ty7iEHsH1KBExw1Cmslf-1" vertex="1">
          <mxGeometry y="190" width="180" height="26" as="geometry" />
        </mxCell>
        <mxCell id="ty7iEHsH1KBExw1Cmslf-18" value="+ adicionarFavoritos()" style="text;strokeColor=none;fillColor=none;align=left;verticalAlign=top;spacingLeft=4;spacingRight=4;overflow=hidden;rotatable=0;points=[[0,0.5],[1,0.5]];portConstraint=eastwest;whiteSpace=wrap;html=1;" parent="ty7iEHsH1KBExw1Cmslf-1" vertex="1">
          <mxGeometry y="216" width="180" height="26" as="geometry" />
        </mxCell>
        <mxCell id="Gu94Zkef91q8hBCz3Hk5-1" value="PESQUISA_KEYWORDS" style="swimlane;fontStyle=1;align=center;verticalAlign=top;childLayout=stackLayout;horizontal=1;startSize=26;horizontalStack=0;resizeParent=1;resizeParentMax=0;resizeLast=0;collapsible=1;marginBottom=0;whiteSpace=wrap;html=1;" parent="1" vertex="1">
          <mxGeometry x="605" y="657" width="180" height="60" as="geometry" />
        </mxCell>
        <mxCell id="Gu94Zkef91q8hBCz3Hk5-2" value="" style="line;strokeWidth=1;fillColor=none;align=left;verticalAlign=middle;spacingTop=-1;spacingLeft=3;spacingRight=3;rotatable=0;labelPosition=right;points=[];portConstraint=eastwest;strokeColor=inherit;" parent="Gu94Zkef91q8hBCz3Hk5-1" vertex="1">
          <mxGeometry y="26" width="180" height="8" as="geometry" />
        </mxCell>
        <mxCell id="Gu94Zkef91q8hBCz3Hk5-3" value="+ pesquisarKeywordsMusica()" style="text;strokeColor=none;fillColor=none;align=left;verticalAlign=top;spacingLeft=4;spacingRight=4;overflow=hidden;rotatable=0;points=[[0,0.5],[1,0.5]];portConstraint=eastwest;whiteSpace=wrap;html=1;" parent="Gu94Zkef91q8hBCz3Hk5-1" vertex="1">
          <mxGeometry y="34" width="180" height="26" as="geometry" />
        </mxCell>
        <mxCell id="Gu94Zkef91q8hBCz3Hk5-4" value="PESQUISA_GENERO" style="swimlane;fontStyle=1;align=center;verticalAlign=top;childLayout=stackLayout;horizontal=1;startSize=26;horizontalStack=0;resizeParent=1;resizeParentMax=0;resizeLast=0;collapsible=1;marginBottom=0;whiteSpace=wrap;html=1;" parent="1" vertex="1">
          <mxGeometry x="955" y="657" width="180" height="60" as="geometry" />
        </mxCell>
        <mxCell id="Gu94Zkef91q8hBCz3Hk5-5" value="" style="line;strokeWidth=1;fillColor=none;align=left;verticalAlign=middle;spacingTop=-1;spacingLeft=3;spacingRight=3;rotatable=0;labelPosition=right;points=[];portConstraint=eastwest;strokeColor=inherit;" parent="Gu94Zkef91q8hBCz3Hk5-4" vertex="1">
          <mxGeometry y="26" width="180" height="8" as="geometry" />
        </mxCell>
        <mxCell id="Gu94Zkef91q8hBCz3Hk5-6" value="+ pesquisarGeneroMusica()" style="text;strokeColor=none;fillColor=none;align=left;verticalAlign=top;spacingLeft=4;spacingRight=4;overflow=hidden;rotatable=0;points=[[0,0.5],[1,0.5]];portConstraint=eastwest;whiteSpace=wrap;html=1;" parent="Gu94Zkef91q8hBCz3Hk5-4" vertex="1">
          <mxGeometry y="34" width="180" height="26" as="geometry" />
        </mxCell>
        <mxCell id="tFmL7FrmpF-d6y1RttAL-1" value="" style="endArrow=block;endFill=0;endSize=12;html=1;rounded=0;exitX=0.418;exitY=0.75;exitDx=0;exitDy=0;exitPerimeter=0;" parent="1" source="tFmL7FrmpF-d6y1RttAL-2" edge="1">
          <mxGeometry width="160" relative="1" as="geometry">
            <mxPoint x="855" y="642" as="sourcePoint" />
            <mxPoint x="855" y="591" as="targetPoint" />
          </mxGeometry>
        </mxCell>
        <mxCell id="tFmL7FrmpF-d6y1RttAL-2" value="" style="line;strokeWidth=1;fillColor=none;align=left;verticalAlign=middle;spacingTop=-1;spacingLeft=3;spacingRight=3;rotatable=0;labelPosition=right;points=[];portConstraint=eastwest;strokeColor=inherit;" parent="1" vertex="1">
          <mxGeometry x="785" y="667" width="170" height="8" as="geometry" />
        </mxCell>
        <mxCell id="zfsGos8l9zdBc95B6FIz-1" value="" style="endArrow=none;html=1;endSize=12;startArrow=diamondThin;startSize=14;startFill=1;edgeStyle=orthogonalEdgeStyle;align=left;verticalAlign=bottom;rounded=0;endFill=0;entryX=0;entryY=0.154;entryDx=0;entryDy=0;entryPerimeter=0;" parent="1" target="ty7iEHsH1KBExw1Cmslf-6" edge="1">
          <mxGeometry x="-1" y="3" relative="1" as="geometry">
            <mxPoint x="260" y="202" as="sourcePoint" />
            <mxPoint x="430" y="202" as="targetPoint" />
          </mxGeometry>
        </mxCell>
        <mxCell id="zfsGos8l9zdBc95B6FIz-4" value="A" style="text;html=1;align=center;verticalAlign=middle;resizable=0;points=[];autosize=1;strokeColor=none;fillColor=none;" parent="1" vertex="1">
          <mxGeometry x="515" y="68" width="30" height="30" as="geometry" />
        </mxCell>
        <mxCell id="zfsGos8l9zdBc95B6FIz-5" value="B" style="text;html=1;align=center;verticalAlign=middle;resizable=0;points=[];autosize=1;strokeColor=none;fillColor=none;" parent="1" vertex="1">
          <mxGeometry x="890" y="64" width="30" height="30" as="geometry" />
        </mxCell>
        <mxCell id="zfsGos8l9zdBc95B6FIz-6" value="&lt;font style=&quot;font-size: 7px;&quot;&gt;HA UMA RELAÇAO DE DEPENDENCIA&lt;/font&gt;" style="text;html=1;align=center;verticalAlign=middle;resizable=0;points=[];autosize=1;strokeColor=none;fillColor=none;" parent="1" vertex="1">
          <mxGeometry x="630" y="220" width="150" height="30" as="geometry" />
        </mxCell>
        <mxCell id="dRKOf4M9cF6QIMAqFouv-5" value="" style="endArrow=block;dashed=1;endFill=1;endSize=12;html=1;rounded=0;strokeColor=#212121;" parent="1" edge="1">
          <mxGeometry width="160" relative="1" as="geometry">
            <mxPoint x="620" y="210" as="sourcePoint" />
            <mxPoint x="780" y="211" as="targetPoint" />
          </mxGeometry>
        </mxCell>
        <mxCell id="dRKOf4M9cF6QIMAqFouv-8" value="1..*" style="text;html=1;align=center;verticalAlign=middle;resizable=0;points=[];autosize=1;strokeColor=none;fillColor=none;" parent="1" vertex="1">
          <mxGeometry x="394" y="178" width="40" height="30" as="geometry" />
        </mxCell>
        <mxCell id="dRKOf4M9cF6QIMAqFouv-12" value="1..*" style="text;html=1;align=center;verticalAlign=middle;resizable=0;points=[];autosize=1;strokeColor=none;fillColor=none;" parent="1" vertex="1">
          <mxGeometry x="630" y="180" width="40" height="30" as="geometry" />
        </mxCell>
        <mxCell id="dRKOf4M9cF6QIMAqFouv-13" value="0..*&amp;nbsp;" style="text;html=1;align=center;verticalAlign=middle;resizable=0;points=[];autosize=1;strokeColor=none;fillColor=none;" parent="1" vertex="1">
          <mxGeometry x="740" y="178" width="40" height="30" as="geometry" />
        </mxCell>
        <mxCell id="UC7meZc7or8m-qqiOSYx-1" value="" style="endArrow=block;endFill=1;html=1;align=left;verticalAlign=top;rounded=0;entryX=0.389;entryY=1;entryDx=0;entryDy=0;entryPerimeter=0;" parent="1" edge="1">
          <mxGeometry x="-1" relative="1" as="geometry">
            <mxPoint x="854.5" y="530" as="sourcePoint" />
            <mxPoint x="854.52" y="362" as="targetPoint" />
          </mxGeometry>
        </mxCell>
        <mxCell id="UC7meZc7or8m-qqiOSYx-3" value="1..*" style="text;html=1;align=center;verticalAlign=middle;resizable=0;points=[];autosize=1;strokeColor=none;fillColor=none;" parent="1" vertex="1">
          <mxGeometry x="860" y="502" width="40" height="30" as="geometry" />
        </mxCell>
        <mxCell id="UC7meZc7or8m-qqiOSYx-4" value="1..*" style="text;html=1;align=center;verticalAlign=middle;resizable=0;points=[];autosize=1;strokeColor=none;fillColor=none;" parent="1" vertex="1">
          <mxGeometry x="860" y="370" width="40" height="30" as="geometry" />
        </mxCell>
        <mxCell id="UC7meZc7or8m-qqiOSYx-6" value="1" style="text;html=1;align=center;verticalAlign=middle;resizable=0;points=[];autosize=1;strokeColor=none;fillColor=none;" parent="1" vertex="1">
          <mxGeometry x="270" y="178" width="30" height="30" as="geometry" />
        </mxCell>
        <mxCell id="aM3dq2GYneEFlMvrkEvM-1" value="&lt;font style=&quot;font-size: 15px;&quot;&gt;&lt;b&gt;SPOTIFY - CRIAÇÃO DE PLAYLIST&lt;/b&gt;&lt;/font&gt;" style="text;html=1;strokeColor=none;fillColor=none;align=center;verticalAlign=middle;whiteSpace=wrap;rounded=0;" vertex="1" parent="1">
          <mxGeometry x="60" y="20" width="310" height="30" as="geometry" />
        </mxCell>
      </root>
    </mxGraphModel>
  </diagram>
  <diagram id="k7JKx3XahPmPcbxFXiPp" name="DIAGRAMA SEQUENCIA">
    <mxGraphModel dx="1779" dy="539" grid="1" gridSize="10" guides="1" tooltips="1" connect="1" arrows="1" fold="1" page="1" pageScale="1" pageWidth="827" pageHeight="1169" math="0" shadow="0">
      <root>
        <mxCell id="0" />
        <mxCell id="1" parent="0" />
        <mxCell id="qAbhoxKsGkh2lUSFV6IF-1" value="Alternativa" style="shape=umlFrame;whiteSpace=wrap;html=1;pointerEvents=0;" parent="1" vertex="1">
          <mxGeometry x="12" y="400" width="718" height="200" as="geometry" />
        </mxCell>
        <mxCell id="qAbhoxKsGkh2lUSFV6IF-3" value="" style="html=1;points=[[0,0,0,0,5],[0,1,0,0,-5],[1,0,0,0,5],[1,1,0,0,-5]];perimeter=orthogonalPerimeter;outlineConnect=0;targetShapes=umlLifeline;portConstraint=eastwest;newEdgeStyle={&quot;curved&quot;:0,&quot;rounded&quot;:0};" parent="1" vertex="1">
          <mxGeometry x="1070" y="510" width="10" height="340" as="geometry" />
        </mxCell>
        <mxCell id="qAbhoxKsGkh2lUSFV6IF-7" value="" style="shape=umlLifeline;perimeter=lifelinePerimeter;whiteSpace=wrap;html=1;container=1;dropTarget=0;collapsible=0;recursiveResize=0;outlineConnect=0;portConstraint=eastwest;newEdgeStyle={&quot;curved&quot;:0,&quot;rounded&quot;:0};participant=umlActor;" parent="1" vertex="1">
          <mxGeometry x="156" y="290" width="20" height="330" as="geometry" />
        </mxCell>
        <mxCell id="qAbhoxKsGkh2lUSFV6IF-9" value="" style="endArrow=block;dashed=1;endFill=0;endSize=12;html=1;rounded=0;exitX=-0.007;exitY=0.543;exitDx=0;exitDy=0;exitPerimeter=0;" parent="1" target="qAbhoxKsGkh2lUSFV6IF-1" edge="1">
          <mxGeometry width="160" relative="1" as="geometry">
            <mxPoint x="12.000000000000043" y="476.02" as="sourcePoint" />
            <mxPoint x="384.8" y="670" as="targetPoint" />
          </mxGeometry>
        </mxCell>
        <mxCell id="qAbhoxKsGkh2lUSFV6IF-11" value="" style="html=1;verticalAlign=bottom;endArrow=none;dashed=1;endSize=8;curved=0;rounded=0;endFill=0;" parent="1" edge="1" source="28HhPWCmtvpumPKy230N-13">
          <mxGeometry relative="1" as="geometry">
            <mxPoint x="310" y="470" as="sourcePoint" />
            <mxPoint x="12" y="469.5" as="targetPoint" />
          </mxGeometry>
        </mxCell>
        <mxCell id="qAbhoxKsGkh2lUSFV6IF-17" value="Frontend" style="whiteSpace=wrap;html=1;" parent="1" vertex="1">
          <mxGeometry x="260" y="270" width="120" height="60" as="geometry" />
        </mxCell>
        <mxCell id="28HhPWCmtvpumPKy230N-1" value="Backend" style="whiteSpace=wrap;html=1;" parent="1" vertex="1">
          <mxGeometry x="450" y="270" width="120" height="60" as="geometry" />
        </mxCell>
        <mxCell id="28HhPWCmtvpumPKy230N-6" value="" style="endArrow=block;endFill=1;html=1;edgeStyle=orthogonalEdgeStyle;align=left;verticalAlign=top;rounded=0;" parent="1" edge="1">
          <mxGeometry x="-0.4" relative="1" as="geometry">
            <mxPoint x="170" y="360" as="sourcePoint" />
            <mxPoint x="310" y="360" as="targetPoint" />
            <mxPoint as="offset" />
          </mxGeometry>
        </mxCell>
        <mxCell id="28HhPWCmtvpumPKy230N-7" value="Pedido de criação de playlist" style="edgeLabel;resizable=0;html=1;align=left;verticalAlign=bottom;" parent="28HhPWCmtvpumPKy230N-6" connectable="0" vertex="1">
          <mxGeometry x="-1" relative="1" as="geometry" />
        </mxCell>
        <mxCell id="28HhPWCmtvpumPKy230N-8" value="" style="html=1;points=[[0,0,0,0,5],[0,1,0,0,-5],[1,0,0,0,5],[1,1,0,0,-5]];perimeter=orthogonalPerimeter;outlineConnect=0;targetShapes=umlLifeline;portConstraint=eastwest;newEdgeStyle={&quot;curved&quot;:0,&quot;rounded&quot;:0};" parent="1" vertex="1">
          <mxGeometry x="505" y="330" width="10" height="290" as="geometry" />
        </mxCell>
        <mxCell id="28HhPWCmtvpumPKy230N-12" value="BD" style="whiteSpace=wrap;html=1;" parent="1" vertex="1">
          <mxGeometry x="650" y="270" width="120" height="60" as="geometry" />
        </mxCell>
        <mxCell id="28HhPWCmtvpumPKy230N-13" value="" style="html=1;points=[[0,0,0,0,5],[0,1,0,0,-5],[1,0,0,0,5],[1,1,0,0,-5]];perimeter=orthogonalPerimeter;outlineConnect=0;targetShapes=umlLifeline;portConstraint=eastwest;newEdgeStyle={&quot;curved&quot;:0,&quot;rounded&quot;:0};" parent="1" vertex="1">
          <mxGeometry x="705" y="330" width="10" height="290" as="geometry" />
        </mxCell>
        <mxCell id="28HhPWCmtvpumPKy230N-19" value="" style="endArrow=block;endFill=1;html=1;edgeStyle=orthogonalEdgeStyle;align=left;verticalAlign=top;rounded=0;" parent="1" edge="1">
          <mxGeometry x="-0.4" relative="1" as="geometry">
            <mxPoint x="310" y="440" as="sourcePoint" />
            <mxPoint x="170" y="440" as="targetPoint" />
            <mxPoint as="offset" />
          </mxGeometry>
        </mxCell>
        <mxCell id="XLOZc8kZC0A6EDq7H6kj-1" value="" style="endArrow=block;endFill=1;html=1;edgeStyle=orthogonalEdgeStyle;align=left;verticalAlign=top;rounded=0;" edge="1" parent="1">
          <mxGeometry x="-0.4" relative="1" as="geometry">
            <mxPoint x="334" y="360" as="sourcePoint" />
            <mxPoint x="334" y="390" as="targetPoint" />
            <mxPoint as="offset" />
            <Array as="points">
              <mxPoint x="364" y="360" />
              <mxPoint x="364" y="390" />
            </Array>
          </mxGeometry>
        </mxCell>
        <mxCell id="XLOZc8kZC0A6EDq7H6kj-2" value="&lt;font style=&quot;font-size: 11px;&quot;&gt;Verificar Login&lt;/font&gt;" style="text;html=1;strokeColor=none;fillColor=none;align=center;verticalAlign=middle;whiteSpace=wrap;rounded=0;" vertex="1" parent="1">
          <mxGeometry x="364" y="360" width="50" height="20" as="geometry" />
        </mxCell>
        <mxCell id="XLOZc8kZC0A6EDq7H6kj-3" value="&lt;font style=&quot;font-size: 11px;&quot;&gt;Solicitar Login&lt;/font&gt;" style="text;html=1;strokeColor=none;fillColor=none;align=center;verticalAlign=middle;whiteSpace=wrap;rounded=0;" vertex="1" parent="1">
          <mxGeometry x="200" y="410" width="90" height="30" as="geometry" />
        </mxCell>
        <mxCell id="qAbhoxKsGkh2lUSFV6IF-2" value="" style="html=1;points=[[0,0,0,0,5],[0,1,0,0,-5],[1,0,0,0,5],[1,1,0,0,-5]];perimeter=orthogonalPerimeter;outlineConnect=0;targetShapes=umlLifeline;portConstraint=eastwest;newEdgeStyle={&quot;curved&quot;:0,&quot;rounded&quot;:0};" parent="1" vertex="1">
          <mxGeometry x="315" y="330" width="10" height="290" as="geometry" />
        </mxCell>
        <mxCell id="XLOZc8kZC0A6EDq7H6kj-4" value="" style="endArrow=block;endFill=1;html=1;edgeStyle=orthogonalEdgeStyle;align=left;verticalAlign=top;rounded=0;" edge="1" parent="1">
          <mxGeometry x="-0.4" relative="1" as="geometry">
            <mxPoint x="328.5" y="509" as="sourcePoint" />
            <mxPoint x="498.5" y="509" as="targetPoint" />
            <mxPoint as="offset" />
          </mxGeometry>
        </mxCell>
        <mxCell id="XLOZc8kZC0A6EDq7H6kj-5" value="Login Inválido" style="text;html=1;strokeColor=none;fillColor=none;align=center;verticalAlign=middle;whiteSpace=wrap;rounded=0;" vertex="1" parent="1">
          <mxGeometry x="60" y="430" width="80" height="30" as="geometry" />
        </mxCell>
        <mxCell id="XLOZc8kZC0A6EDq7H6kj-6" value="Início do processo de criação da playlist" style="text;html=1;strokeColor=none;fillColor=none;align=center;verticalAlign=middle;whiteSpace=wrap;rounded=0;" vertex="1" parent="1">
          <mxGeometry x="330" y="480" width="170" height="30" as="geometry" />
        </mxCell>
        <mxCell id="XLOZc8kZC0A6EDq7H6kj-7" value="Login Válido" style="text;html=1;strokeColor=none;fillColor=none;align=center;verticalAlign=middle;whiteSpace=wrap;rounded=0;" vertex="1" parent="1">
          <mxGeometry x="60" y="510" width="80" height="30" as="geometry" />
        </mxCell>
        <mxCell id="XLOZc8kZC0A6EDq7H6kj-8" value="" style="endArrow=block;endFill=1;html=1;edgeStyle=orthogonalEdgeStyle;align=left;verticalAlign=top;rounded=0;" edge="1" parent="1">
          <mxGeometry x="-0.4" relative="1" as="geometry">
            <mxPoint x="525" y="520" as="sourcePoint" />
            <mxPoint x="695" y="520" as="targetPoint" />
            <mxPoint as="offset" />
          </mxGeometry>
        </mxCell>
        <mxCell id="XLOZc8kZC0A6EDq7H6kj-10" value="Verificar se pode ser criada" style="text;html=1;strokeColor=none;fillColor=none;align=center;verticalAlign=middle;whiteSpace=wrap;rounded=0;" vertex="1" parent="1">
          <mxGeometry x="530" y="485" width="150" height="30" as="geometry" />
        </mxCell>
        <mxCell id="XLOZc8kZC0A6EDq7H6kj-11" value="" style="endArrow=block;endFill=1;html=1;edgeStyle=orthogonalEdgeStyle;align=left;verticalAlign=top;rounded=0;" edge="1" parent="1">
          <mxGeometry x="-0.4" relative="1" as="geometry">
            <mxPoint x="695" y="560" as="sourcePoint" />
            <mxPoint x="525" y="560" as="targetPoint" />
            <mxPoint as="offset" />
          </mxGeometry>
        </mxCell>
        <mxCell id="XLOZc8kZC0A6EDq7H6kj-12" value="" style="endArrow=block;endFill=1;html=1;edgeStyle=orthogonalEdgeStyle;align=left;verticalAlign=top;rounded=0;" edge="1" parent="1">
          <mxGeometry x="-0.4" relative="1" as="geometry">
            <mxPoint x="499" y="570" as="sourcePoint" />
            <mxPoint x="329" y="570" as="targetPoint" />
            <mxPoint as="offset" />
          </mxGeometry>
        </mxCell>
        <mxCell id="XLOZc8kZC0A6EDq7H6kj-13" value="Criação Verificada" style="text;html=1;strokeColor=none;fillColor=none;align=center;verticalAlign=middle;whiteSpace=wrap;rounded=0;" vertex="1" parent="1">
          <mxGeometry x="540" y="530" width="130" height="30" as="geometry" />
        </mxCell>
        <mxCell id="XLOZc8kZC0A6EDq7H6kj-14" value="" style="endArrow=block;endFill=1;html=1;edgeStyle=orthogonalEdgeStyle;align=left;verticalAlign=top;rounded=0;" edge="1" parent="1">
          <mxGeometry x="-0.4" relative="1" as="geometry">
            <mxPoint x="310" y="584" as="sourcePoint" />
            <mxPoint x="170" y="584" as="targetPoint" />
            <mxPoint as="offset" />
          </mxGeometry>
        </mxCell>
        <mxCell id="XLOZc8kZC0A6EDq7H6kj-15" value="Criação da Playlist" style="text;html=1;strokeColor=none;fillColor=none;align=center;verticalAlign=middle;whiteSpace=wrap;rounded=0;" vertex="1" parent="1">
          <mxGeometry x="350" y="540" width="140" height="30" as="geometry" />
        </mxCell>
        <mxCell id="XLOZc8kZC0A6EDq7H6kj-16" value="Apresentação da playlist criada" style="text;html=1;strokeColor=none;fillColor=none;align=center;verticalAlign=middle;whiteSpace=wrap;rounded=0;" vertex="1" parent="1">
          <mxGeometry x="170" y="555" width="140" height="30" as="geometry" />
        </mxCell>
        <mxCell id="PcORtGONDjPKm1P0tSBx-1" value="&lt;font style=&quot;font-size: 15px;&quot;&gt;&lt;b&gt;SPOTIFY - CRIAÇÃO DE PLAYLIST&lt;/b&gt;&lt;/font&gt;" style="text;html=1;strokeColor=none;fillColor=none;align=center;verticalAlign=middle;whiteSpace=wrap;rounded=0;" vertex="1" parent="1">
          <mxGeometry y="170" width="310" height="30" as="geometry" />
        </mxCell>
      </root>
    </mxGraphModel>
  </diagram>
</mxfile>
